<?xml version="1.0" encoding="UTF-8"?>
<svg width="1200pt" height="1200pt" version="1.1" viewBox="0 0 1200 1200" xmlns="http://www.w3.org/2000/svg">
 <g fill="#ff814a">
  <path d="m1167.6 996-106.8-283.2c-7.1992-18-26.398-27.602-44.398-22.801l-314.4 91.199-152.4-32.398v106.8c0 55.199-44.398 99.602-99.602 99.602-54 0-99.602-44.398-99.602-99.602l-0.003906-148.8-75.602-16.801c-12-2.3984-24 1.1992-32.398 8.3984l-199.2 180c-12 10.801-15.602 31.199-7.1992 45.602l114 198c6 10.801 19.199 18 32.398 18h682.8c3.6016 0 8.3984 0 12-1.1992l267.6-94.801c9.6016-3.6016 16.801-10.801 21.602-19.199 3.5977-9.6016 4.7969-19.199 1.1992-28.801z"/>
  <path d="m448.8 892.8c20.398 0 37.199-16.801 37.199-37.199v-342h355.2c20.398 0 37.199-16.801 37.199-37.199v-306c0-20.398-16.801-37.199-37.199-37.199h-355.2v-36c0-20.398-16.801-37.199-37.199-37.199-20.398 0-37.199 16.801-37.199 37.199v758.4c1.1992 20.402 16.797 37.203 37.199 37.203z"/>
 </g>
</svg>
